<?xml version="1.0" encoding="utf-8"?>
<!DOCTYPE svg PUBLIC "-//W3C//DTD SVG 20010904//EN" "http://www.w3.org/TR/2001/REC-SVG-20010904/DTD/svg10.dtd">
<svg version="1.0" xmlns="http://www.w3.org/2000/svg" width="130pt" height="130pt" viewBox="0 0 130 130" preserveAspectRatio="xMidYMid meet">
<g fill="#FFFFFFFF">
<path d="M 62.00 29.00 L 62.00 10.00 L 65.00 10.00 L 68.00 10.00 L 68.00 29.00 L 68.00 48.00 L 65.00 48.00 L 62.00 48.00 L 62.00 29.00Z"/></g>
<g fill="#FFFFFFFF">
<path d="M 82.00 65.00 L 82.00 62.00 L 101.00 62.00 L 120.00 62.00 L 120.00 65.00 L 120.00 68.00 L 101.00 68.00 L 82.00 68.00 L 82.00 65.00Z"/></g>
<g fill="#FFFFFFFF">
<path d="M 10.00 65.00 L 10.00 62.00 L 29.00 62.00 L 48.00 62.00 L 48.00 65.00 L 48.00 68.00 L 29.00 68.00 L 10.00 68.00 L 10.00 65.00Z"/></g>
<g fill="#FFFFFFFF">
<path d="M 62.00 101.00 L 62.00 82.00 L 65.00 82.00 L 68.00 82.00 L 68.00 101.00 L 68.00 120.00 L 65.00 120.00 L 62.00 120.00 L 62.00 101.00Z"/></g>
<g fill="#FFFFFFFF">
<path d="M 62.00 65.00 C 62.00 62.33 62.33 62.00 65.00 62.00 C 67.67 62.00 68.00 62.33 68.00 65.00 C 68.00 67.67 67.67 68.00 65.00 68.00 C 62.33 68.00 62.00 67.67 62.00 65.00Z"/></g>
</svg>
