<?xml version="1.0" standalone="no"?>
<!DOCTYPE svg PUBLIC "-//W3C//DTD SVG 20010904//EN"
 "http://www.w3.org/TR/2001/REC-SVG-20010904/DTD/svg10.dtd">
<svg version="1.0" xmlns="http://www.w3.org/2000/svg"
 width="2400.000000pt" height="649.000000pt" viewBox="0 0 2400.000000 649.000000"
 preserveAspectRatio="xMidYMid meet">
<metadata>
Created by potrace 1.16, written by Peter Selinger 2001-2019
</metadata>
<g transform="translate(0.000000,649.000000) scale(0.100000,-0.100000)"
fill="#000000" stroke="none">
<path d="M11558 6470 c-104 -42 -165 -97 -220 -195 -32 -59 -33 -63 -33 -180
0 -114 1 -123 30 -175 43 -78 114 -146 191 -182 55 -25 83 -32 159 -36 142 -7
243 26 334 111 72 68 121 180 121 275 0 167 -100 313 -258 377 -53 21 -77 25
-169 24 -83 0 -119 -5 -155 -19z"/>
<path d="M8833 6363 l-23 -4 0 -1812 c0 -1034 4 -1850 10 -1900 10 -94 47
-266 61 -282 5 -5 9 -16 9 -25 0 -19 83 -193 108 -225 9 -13 24 -33 32 -46 37
-57 162 -175 235 -224 134 -89 298 -154 442 -175 98 -14 749 -24 1006 -15
l217 7 0 324 0 324 -483 0 c-445 0 -491 2 -578 20 -52 11 -113 29 -136 41 -54
28 -113 84 -142 134 -49 84 -50 119 -51 1183 l0 992 695 0 695 0 0 330 0 330
-700 0 -700 0 0 515 0 515 -337 -1 c-186 -1 -348 -4 -360 -6z"/>
<path d="M1900 4495 l0 -925 140 0 140 0 0 925 0 925 -140 0 -140 0 0 -925z"/>
<path d="M6145 5410 c-104 -12 -278 -41 -294 -49 -9 -5 -33 -11 -54 -15 -43
-8 -163 -46 -222 -71 -115 -47 -262 -120 -286 -141 -8 -8 -19 -14 -23 -14 -19
0 -211 -153 -286 -229 -119 -119 -160 -169 -244 -296 -164 -248 -266 -511
-314 -815 -15 -95 -17 -287 -19 -1942 l-3 -1838 359 0 358 0 7 46 c3 25 3 735
0 1577 -5 1080 -3 1594 5 1742 13 247 37 384 98 565 16 46 104 241 113 250 3
3 28 39 55 80 46 69 166 199 241 261 42 36 220 136 263 150 20 6 45 14 56 19
53 24 192 53 298 63 257 24 536 -31 767 -150 127 -66 191 -113 290 -214 90
-92 88 -89 143 -175 100 -157 166 -334 197 -526 25 -161 25 -235 -1 -400 -60
-380 -237 -671 -512 -845 -55 -35 -211 -113 -226 -113 -6 0 -19 -4 -29 -9 -54
-30 -190 -59 -374 -81 -119 -14 -311 6 -508 54 -36 9 -74 20 -85 25 -11 5 -56
21 -99 37 -44 15 -110 42 -148 61 -38 18 -70 33 -72 33 -3 0 -43 23 -91 50
-48 27 -91 50 -96 50 -5 0 -9 -147 -9 -359 l0 -359 94 -46 c52 -25 107 -48
122 -52 16 -4 34 -10 39 -14 11 -8 93 -35 170 -57 121 -33 304 -64 481 -80
180 -16 201 -16 361 0 196 20 259 33 433 88 134 43 366 151 435 202 5 4 47 34
93 66 133 93 272 227 393 378 47 58 152 231 196 323 146 304 196 608 163 990
-18 196 -75 441 -136 580 -8 19 -19 44 -24 55 -56 133 -156 310 -224 396 -12
15 -34 44 -51 65 -35 46 -215 227 -265 267 -148 117 -360 234 -540 296 -36 13
-74 27 -85 32 -50 22 -286 71 -430 89 -88 11 -385 11 -480 0z"/>
<path d="M14320 5409 c-321 -34 -608 -123 -865 -269 -33 -18 -62 -36 -65 -39
-3 -3 -18 -13 -33 -21 -16 -8 -74 -51 -130 -96 -319 -257 -554 -600 -656 -959
-53 -185 -56 -216 -56 -500 0 -244 2 -280 23 -380 35 -165 68 -277 115 -395
174 -433 531 -785 1007 -993 94 -41 123 -52 220 -84 185 -61 441 -102 638
-103 250 0 555 54 792 143 107 39 283 124 332 158 14 11 29 19 32 19 18 0 212
150 305 235 38 35 154 163 203 223 110 137 231 361 285 532 49 156 69 259 94
488 11 109 10 142 -11 369 -19 207 -88 433 -200 653 -34 68 -124 208 -168 262
-114 140 -216 239 -337 329 -33 24 -62 46 -65 49 -12 12 -72 51 -160 102 -266
155 -528 242 -840 278 -98 11 -351 11 -460 -1z m380 -659 c250 -30 492 -130
674 -279 152 -123 282 -312 346 -501 12 -36 26 -74 30 -85 5 -11 14 -42 20
-70 6 -27 15 -68 20 -90 26 -118 20 -409 -10 -510 -5 -16 -22 -70 -36 -120
-15 -49 -31 -97 -35 -105 -4 -8 -24 -50 -44 -92 -40 -84 -108 -191 -154 -242
-16 -17 -40 -43 -52 -57 -32 -34 -143 -125 -188 -153 -162 -102 -362 -173
-555 -197 -108 -13 -321 -7 -441 12 -116 18 -269 70 -358 121 -26 16 -50 28
-53 28 -2 0 -23 12 -47 28 -238 155 -409 382 -489 651 -46 155 -72 339 -65
456 9 141 48 332 86 420 5 11 19 45 32 75 27 63 106 205 130 235 9 11 40 48
68 82 58 71 183 171 289 231 41 23 77 42 80 42 4 0 18 6 32 13 79 41 278 95
394 107 107 11 232 11 326 0z"/>
<path d="M18400 5411 c-94 -13 -254 -43 -270 -51 -8 -4 -40 -13 -70 -20 -68
-16 -203 -69 -292 -115 -151 -78 -304 -195 -413 -315 -28 -30 -53 -57 -56 -60
-14 -13 -118 -160 -143 -204 -81 -140 -141 -293 -177 -458 -16 -71 -23 -152
-29 -338 -10 -285 -13 -2112 -4 -2159 l7 -31 358 0 359 0 0 1080 c0 1114 3
1214 41 1340 31 104 95 236 148 303 21 28 161 168 186 187 36 27 159 96 210
118 392 163 871 29 1127 -316 41 -55 118 -208 118 -234 0 -8 4 -18 9 -23 5 -6
18 -62 30 -126 21 -114 21 -138 21 -1222 l0 -1107 366 0 365 0 -4 1173 c-3
863 -7 1192 -16 1247 -14 88 -70 289 -106 379 -24 62 -121 251 -134 261 -3 3
-20 25 -36 49 -53 78 -159 193 -254 274 -96 83 -377 241 -466 263 -17 4 -34
10 -40 14 -14 11 -110 37 -245 67 -98 21 -146 25 -325 28 -115 2 -235 0 -265
-4z"/>
<path d="M1635 5383 c-42 -5 -219 -51 -285 -73 -109 -36 -230 -91 -336 -151
-21 -12 -48 -27 -59 -33 -20 -11 -130 -83 -150 -98 -237 -181 -389 -338 -511
-528 -69 -109 -150 -278 -189 -394 -125 -380 -139 -711 -45 -1071 40 -154 66
-223 147 -383 51 -101 156 -270 182 -292 3 -3 23 -26 43 -51 100 -124 374
-361 480 -415 18 -9 40 -22 48 -29 24 -20 123 -71 202 -105 40 -17 87 -38 103
-45 52 -23 211 -73 272 -85 32 -6 76 -15 98 -20 57 -14 305 -40 383 -40 81 0
338 25 407 40 28 6 79 17 115 25 376 81 697 258 981 544 276 277 433 561 518
936 22 98 30 202 31 385 0 251 -8 312 -75 555 -9 33 -20 65 -25 70 -4 6 -13
28 -20 50 -30 95 -188 367 -280 480 -119 148 -254 276 -410 387 -162 115 -351
207 -565 274 -153 49 -175 54 -235 62 l-60 9 0 -321 0 -321 103 -35 c99 -33
188 -74 292 -135 58 -34 52 -30 130 -93 235 -192 414 -473 469 -737 15 -73 22
-232 15 -332 -8 -97 -45 -276 -69 -328 -5 -11 -21 -49 -37 -85 -28 -66 -99
-196 -118 -216 -5 -7 -19 -25 -30 -40 -27 -39 -190 -203 -246 -247 -54 -44
-216 -142 -250 -152 -13 -4 -33 -13 -44 -19 -68 -41 -263 -92 -435 -113 -135
-16 -148 -16 -283 1 -78 10 -176 27 -217 38 -83 22 -190 58 -205 68 -5 4 -21
11 -35 15 -29 9 -117 59 -214 124 -72 47 -224 191 -287 271 -275 348 -344 728
-208 1150 31 96 87 222 102 228 4 2 7 8 7 13 0 26 137 208 205 272 92 87 206
166 350 241 39 21 222 93 283 112 9 3 12 76 12 324 0 250 -3 320 -12 319 -7
-1 -26 -4 -43 -6z"/>
<path d="M11360 3500 l0 -1840 354 0 354 0 6 31 c8 42 8 3460 -1 3567 l-6 82
-353 0 -354 0 0 -1840z"/>
<path d="M21845 5329 c-218 -20 -371 -59 -535 -137 -69 -32 -148 -78 -160 -93
-3 -3 -13 -10 -23 -15 -10 -6 -47 -39 -83 -74 -116 -114 -186 -239 -231 -415
-26 -101 -26 -395 0 -480 96 -311 284 -488 729 -689 20 -9 39 -16 43 -16 4 0
21 -7 38 -15 29 -13 172 -61 327 -110 105 -33 335 -96 475 -131 33 -8 71 -19
85 -24 14 -4 59 -18 100 -30 77 -22 209 -65 245 -80 94 -39 127 -56 197 -97
176 -104 232 -229 176 -393 -37 -110 -128 -179 -265 -202 -46 -8 -404 -12
-1121 -15 l-1052 -3 2 -328 3 -327 1085 1 c770 1 1112 4 1177 13 192 24 371
84 518 174 171 105 301 258 365 432 48 129 55 181 55 400 0 236 -6 266 -77
410 -97 196 -275 355 -548 488 -125 61 -246 111 -325 134 -27 7 -59 18 -70 23
-31 13 -252 80 -330 99 -54 14 -188 48 -255 67 -30 8 -73 19 -95 25 -22 5 -71
19 -110 30 -373 111 -529 189 -598 300 -52 85 -46 218 15 306 37 55 125 98
231 112 52 7 404 11 1028 11 l949 0 0 330 0 330 -942 -2 c-519 0 -979 -4
-1023 -9z"/>
</g>
</svg>
